<svg version="1.1" id="Layer_1" xmlns="http://www.w3.org/2000/svg" xmlns:xlink="http://www.w3.org/1999/xlink" x="0px" y="0px"
	 width="100%" viewBox="0 0 1200 1200" enable-background="new 0 0 1200 1200" xml:space="preserve">
<path fill="#000000" opacity="1.000000" stroke="none" 
	d="
M1118.000000,1201.000000 
	C745.333313,1201.000000 373.166656,1201.000000 1.000000,1201.000000 
	C1.000000,801.000000 1.000000,401.000000 1.000000,1.000000 
	C401.000000,1.000000 801.000000,1.000000 1201.000000,1.000000 
	C1201.000000,401.000000 1201.000000,801.000000 1201.000000,1201.000000 
	C1173.500000,1201.000000 1146.000000,1201.000000 1118.000000,1201.000000 
M673.669067,635.000000 
	C669.706238,635.435486 671.050903,632.429138 671.046814,630.650513 
	C670.981995,602.490845 671.007263,574.330933 670.996277,546.171082 
	C670.993958,540.290283 669.717834,539.014954 663.840027,539.005676 
	C652.030823,538.987061 640.221680,539.000244 628.318604,539.000244 
	C627.177185,533.218445 625.753784,527.742249 625.115173,522.176025 
	C624.675720,518.345886 623.431030,515.532654 619.419861,516.149719 
	C615.180786,516.801819 615.709412,520.471619 616.282471,523.631897 
	C617.189758,528.636047 618.188232,533.623718 619.183594,538.802979 
	C606.791443,538.802979 595.012146,538.802979 582.724365,538.802979 
	C583.843994,533.344421 585.040588,528.186035 585.915344,522.973694 
	C586.385132,520.173767 586.492004,516.911560 582.859375,516.118958 
	C579.751404,515.440857 577.600891,517.220032 577.023926,520.413696 
	C575.912720,526.564148 574.906616,532.733582 573.838989,539.000244 
	C561.907654,539.000244 550.423279,538.996948 538.938904,539.001404 
	C531.984497,539.004150 531.001282,539.979797 531.000305,546.904236 
	C530.996643,574.564209 530.998779,602.224182 530.998779,629.884155 
	C530.998779,631.492737 530.998779,633.101257 530.998779,635.104126 
	C525.758362,635.104126 521.004822,635.104126 516.257568,635.104126 
	C516.257568,638.249390 516.257568,640.985901 516.257568,644.090881 
	C528.873108,644.090881 541.237000,644.090881 553.531311,644.090881 
	C553.109314,646.699036 552.802246,648.956299 552.372437,651.189941 
	C550.602966,660.385681 548.663391,669.551453 547.083130,678.779114 
	C546.599182,681.605103 546.249146,685.331116 550.376709,685.878784 
	C554.471863,686.422058 555.393616,682.961853 555.973694,679.844360 
	C558.042786,668.725281 559.958130,657.577148 562.101807,646.472900 
	C562.284241,645.527588 563.716431,644.129639 564.585754,644.116577 
	C575.338440,643.954468 586.094360,644.010681 597.000305,644.010681 
	C597.000305,653.122070 597.096008,661.607849 596.950623,670.089478 
	C596.896606,673.236389 598.220703,674.041382 601.132141,674.075073 
	C604.325684,674.111938 605.081604,672.697693 605.042114,669.823730 
	C604.924133,661.243469 604.999756,652.660522 604.999756,644.000061 
	C615.697083,644.000061 625.692322,643.890198 635.679688,644.121277 
	C637.138062,644.155029 639.595093,645.598450 639.835999,646.755005 
	C642.108154,657.663147 644.007874,668.649109 645.995239,679.616211 
	C646.572632,682.802429 647.451172,686.213196 651.392822,685.867798 
	C655.877808,685.474731 655.427612,681.457092 654.903870,678.514832 
	C652.867676,667.074890 650.492188,655.695312 648.165161,643.898804 
	C660.819153,643.898804 673.254761,643.898804 685.764099,643.898804 
	C685.764099,640.792236 685.764099,638.056030 685.764099,635.000244 
	C681.900635,635.000244 678.268494,635.000244 673.669067,635.000000 
M287.079773,634.601868 
	C298.543182,642.014221 310.252716,643.852112 322.625641,635.802734 
	C322.916962,637.396484 323.153870,638.692505 323.353638,639.785278 
	C330.419891,639.785278 337.031525,639.785278 343.785675,639.785278 
	C343.785675,612.168335 343.785675,584.766418 343.785675,557.217529 
	C336.499146,557.217529 329.428101,557.217529 321.978271,557.217529 
	C321.978271,565.789062 321.978271,574.153809 321.978271,582.740295 
	C309.320923,574.958740 295.027618,577.431091 285.014465,586.431213 
	C273.616119,596.676453 272.631470,622.997864 287.079773,634.601868 
M117.444641,586.041138 
	C113.868507,594.264099 110.311043,602.495239 106.711380,610.707886 
	C102.487389,620.344971 98.226707,629.966003 93.864449,639.860535 
	C102.065697,639.860535 109.852165,639.860535 117.592743,639.860535 
	C119.207718,635.561829 120.571976,631.285278 122.478607,627.265930 
	C123.019684,626.125305 125.124741,625.139771 126.541351,625.099609 
	C134.026260,624.887512 141.526886,625.188110 149.008820,624.928650 
	C153.414978,624.775818 156.521545,625.244263 157.396072,630.592468 
	C157.920792,633.801392 159.973999,636.760498 161.337494,639.825684 
	C169.195023,639.825684 176.970520,639.825684 185.216995,639.825684 
	C173.630432,613.651611 162.186020,587.798706 150.809204,562.098511 
	C143.017975,562.098511 135.705597,562.098511 128.197769,562.098511 
	C124.782036,569.887451 121.371025,577.665588 117.444641,586.041138 
M713.000000,615.500000 
	C713.000000,628.928894 713.000000,642.357727 713.000000,655.711121 
	C720.314697,655.711121 727.054321,655.711121 733.950317,655.711121 
	C733.950317,647.463745 733.950317,639.503357 733.950317,631.259338 
	C746.182251,638.824829 758.252808,637.833557 768.809753,629.376099 
	C779.081116,621.147461 781.528076,608.843689 777.707581,596.978149 
	C770.298401,573.966797 753.917664,570.773926 733.153687,579.424011 
	C733.066467,578.596252 732.938232,577.379456 732.823120,576.287354 
	C726.044434,576.287354 719.627380,576.287354 713.000000,576.287354 
	C713.000000,589.215820 713.000000,601.857910 713.000000,615.500000 
M259.999756,637.319458 
	C259.999847,625.662231 260.060883,614.004700 259.985352,602.347961 
	C259.879242,585.967896 246.943893,575.215942 230.308090,578.999268 
	C225.852676,580.012512 221.519547,581.563538 217.101364,582.876282 
	C217.028091,582.079956 216.890503,580.584656 216.776184,579.342102 
	C209.567200,579.342102 202.829437,579.342102 196.329132,579.342102 
	C196.329132,599.747070 196.329132,619.808960 196.329132,639.672607 
	C203.733170,639.672607 210.804993,639.672607 218.000031,639.672607 
	C218.000031,629.031860 217.998718,618.717957 218.000473,608.404114 
	C218.001709,601.121521 223.270767,596.949341 229.210114,597.010376 
	C234.660309,597.066406 237.997696,601.370056 237.999741,608.234375 
	C238.001038,612.564209 238.000000,616.893982 238.000000,621.223816 
	C238.000000,627.468872 238.000000,633.713928 238.000000,639.999939 
	C244.718842,639.999939 250.714890,640.085999 256.704132,639.922668 
	C257.815491,639.892334 258.899445,638.857544 259.999756,637.319458 
M460.462982,582.938477 
	C449.083221,574.604675 422.292267,577.942932 413.864502,585.827637 
	C416.303009,590.590698 418.769714,595.408813 421.222046,600.198914 
	C438.490417,592.277954 447.094849,593.506836 449.286011,603.090881 
	C440.629120,604.042419 431.754303,604.422485 423.147949,606.144470 
	C415.709534,607.632690 411.645508,613.698853 411.005127,621.515991 
	C410.520111,627.436768 414.908936,635.173462 420.558197,637.831604 
	C430.996277,642.742859 441.091125,642.261169 450.845764,635.216980 
	C450.978363,636.923706 451.094025,638.412170 451.191467,639.666321 
	C458.413513,639.666321 465.151978,639.666321 472.000000,639.666321 
	C472.000000,628.353088 472.190399,617.368896 471.941406,606.394653 
	C471.732025,597.166260 469.459900,588.665344 460.462982,582.938477 
M934.823975,594.024963 
	C939.644043,592.134888 943.690552,593.751282 946.028748,597.854553 
	C947.524292,600.478882 947.838013,604.015869 947.917114,607.162964 
	C948.149475,616.407410 948.000000,625.661499 948.000000,634.652588 
	C955.434448,634.652588 962.177673,634.652588 968.007324,634.652588 
	C968.007324,620.738220 968.305359,607.168091 967.895142,593.619385 
	C967.651123,585.562073 962.620789,579.975159 955.436218,577.120605 
	C946.276245,573.481140 937.105103,573.875000 928.691711,579.787781 
	C928.225220,580.115601 927.731506,580.404907 927.093628,580.812256 
	C927.004456,579.027771 926.933289,577.604736 926.867249,576.283203 
	C919.722168,576.283203 912.971558,576.283203 906.284180,576.283203 
	C906.284180,595.971191 906.284180,615.374756 906.284180,634.712646 
	C913.644348,634.712646 920.717468,634.712646 928.000000,634.712646 
	C928.000000,624.616943 928.198730,614.801331 927.918152,604.999390 
	C927.772705,599.919739 929.719238,596.553528 934.823975,594.024963 
M848.000000,630.377319 
	C848.000000,620.547119 848.324890,610.703186 847.908508,600.890686 
	C847.492126,591.076904 844.638489,582.178040 834.394043,578.160095 
	C820.441406,572.687866 806.780518,574.089600 793.641541,580.919067 
	C792.793030,581.360168 792.254761,583.944763 792.711060,585.070618 
	C794.334412,589.075989 796.450623,592.881531 798.460022,596.923218 
	C804.216614,593.183228 810.425964,591.179077 817.331848,592.004761 
	C824.244934,592.831360 825.964844,595.432007 825.721863,599.505371 
	C818.312195,600.007080 810.779175,599.744202 803.589966,601.190430 
	C793.549500,603.210083 790.342834,607.330627 789.080322,616.126831 
	C787.944641,624.039429 792.389221,630.945862 800.704590,634.100952 
	C810.192139,637.700867 819.382629,637.011780 827.846802,630.174011 
	C827.979065,631.924011 828.091553,633.412842 828.211487,634.999939 
	C833.994202,634.999939 839.327881,634.806213 844.638367,635.074219 
	C847.715271,635.229553 848.392578,633.955750 848.000000,630.377319 
M1060.617676,636.000000 
	C1062.781250,636.000000 1064.960938,636.172119 1067.105347,635.969604 
	C1075.458496,635.180847 1083.222778,633.241638 1089.130981,626.437317 
	C1094.788696,619.921326 1092.975098,606.131958 1085.039917,602.758484 
	C1079.375488,600.350281 1073.017456,599.598572 1067.005859,597.971741 
	C1063.823975,597.110718 1060.720825,595.959351 1057.582153,594.939026 
	C1057.751343,594.256592 1057.920410,593.574158 1058.089600,592.891724 
	C1066.817017,588.880188 1075.297241,591.102539 1084.051514,594.821350 
	C1086.017456,590.615601 1088.114136,586.479858 1089.796387,582.181885 
	C1090.071899,581.477844 1088.774292,579.523987 1087.776489,579.052979 
	C1077.174805,574.048340 1065.907471,573.724854 1054.840698,576.274353 
	C1047.236084,578.026245 1040.628662,582.032227 1038.487305,590.873779 
	C1036.789185,597.885193 1039.552490,606.368164 1046.074585,608.860596 
	C1052.150269,611.182434 1058.657471,612.412231 1065.021362,613.926086 
	C1067.619263,614.544067 1071.613403,613.387451 1071.600708,617.176575 
	C1071.596558,618.420837 1066.981567,619.700989 1064.416626,620.831970 
	C1064.011963,621.010376 1063.308838,620.419739 1062.720703,620.288574 
	C1056.235474,618.843384 1049.745605,617.418823 1042.899902,615.909912 
	C1041.104858,619.922546 1038.973389,624.687439 1036.765747,629.622192 
	C1043.993042,634.281555 1051.792847,635.274658 1060.617676,636.000000 
M1004.427124,563.000000 
	C999.672241,563.000000 994.917358,563.000000 989.789185,563.000000 
	C989.789185,567.688354 989.789185,571.767883 989.789185,576.214294 
	C986.663818,576.214294 983.924500,576.214294 981.289551,576.214294 
	C981.289551,581.677246 981.289551,586.748779 981.289551,592.197205 
	C984.318298,592.197205 987.057861,592.197205 990.000000,592.197205 
	C990.000000,600.546509 989.861145,608.516663 990.042908,616.479492 
	C990.194702,623.130737 992.553894,628.617676 998.658813,632.271790 
	C1007.657837,637.658142 1016.904114,636.617432 1026.233643,633.816528 
	C1027.100098,633.556396 1028.161255,631.217285 1027.855347,630.245300 
	C1026.438599,625.743225 1024.570923,621.383118 1022.848877,616.931030 
	C1016.263672,620.392212 1011.388489,619.316833 1011.111938,614.329346 
	C1010.702332,606.940186 1011.005981,599.511536 1011.005981,591.726746 
	C1015.741150,591.726746 1019.814636,591.726746 1023.673340,591.726746 
	C1023.673340,586.259949 1023.673340,581.189087 1023.673340,575.742676 
	C1019.272888,575.742676 1015.197815,575.742676 1010.748291,575.742676 
	C1010.748291,571.280884 1010.748291,567.206665 1010.748291,563.000000 
	C1008.704651,563.000000 1007.053833,563.000000 1004.427124,563.000000 
M404.000000,590.449341 
	C404.000000,586.327698 404.000000,582.206055 404.000000,576.695618 
	C396.724274,579.195801 390.329590,581.393188 383.961273,583.581543 
	C383.961273,582.779663 383.961273,581.045410 383.961273,579.199585 
	C376.909424,579.199585 370.151062,579.199585 363.360931,579.199585 
	C363.360931,599.578308 363.360931,619.755310 363.360931,639.641602 
	C370.797028,639.641602 377.869965,639.641602 385.000031,639.641602 
	C385.000031,629.961182 384.928864,620.638245 385.022949,611.317078 
	C385.095886,604.089844 390.143616,598.350342 396.581360,598.020264 
	C398.997131,597.896362 401.424622,598.000244 404.000000,598.000244 
	C404.000000,595.393188 404.000000,593.411133 404.000000,590.449341 
M866.000000,610.500000 
	C866.000000,618.597412 866.000000,626.694824 866.000000,634.711731 
	C873.647827,634.711731 880.720276,634.711731 887.713806,634.711731 
	C887.713806,615.020630 887.713806,595.619080 887.713806,576.288208 
	C880.352295,576.288208 873.279846,576.288208 866.000000,576.288208 
	C866.000000,587.550110 866.000000,598.525085 866.000000,610.500000 
M887.598083,552.078613 
	C883.739380,547.885559 878.701111,547.416077 873.562378,548.063538 
	C865.870544,549.032715 861.341125,557.942993 865.088135,564.290527 
	C868.249695,569.646301 878.090271,572.135437 883.878296,569.043274 
	C889.513123,566.033020 891.192688,559.364746 887.598083,552.078613 
z"/>
<path fill="#FFECF3" opacity="1.000000" stroke="none" 
	d="
M674.152710,635.000122 
	C678.268494,635.000244 681.900635,635.000244 685.764099,635.000244 
	C685.764099,638.056030 685.764099,640.792236 685.764099,643.898804 
	C673.254761,643.898804 660.819153,643.898804 648.165161,643.898804 
	C650.492188,655.695312 652.867676,667.074890 654.903870,678.514832 
	C655.427612,681.457092 655.877808,685.474731 651.392822,685.867798 
	C647.451172,686.213196 646.572632,682.802429 645.995239,679.616211 
	C644.007874,668.649109 642.108154,657.663147 639.835999,646.755005 
	C639.595093,645.598450 637.138062,644.155029 635.679688,644.121277 
	C625.692322,643.890198 615.697083,644.000061 604.999756,644.000061 
	C604.999756,652.660522 604.924133,661.243469 605.042114,669.823730 
	C605.081604,672.697693 604.325684,674.111938 601.132141,674.075073 
	C598.220703,674.041382 596.896606,673.236389 596.950623,670.089478 
	C597.096008,661.607849 597.000305,653.122070 597.000305,644.010681 
	C586.094360,644.010681 575.338440,643.954468 564.585754,644.116577 
	C563.716431,644.129639 562.284241,645.527588 562.101807,646.472900 
	C559.958130,657.577148 558.042786,668.725281 555.973694,679.844360 
	C555.393616,682.961853 554.471863,686.422058 550.376709,685.878784 
	C546.249146,685.331116 546.599182,681.605103 547.083130,678.779114 
	C548.663391,669.551453 550.602966,660.385681 552.372437,651.189941 
	C552.802246,648.956299 553.109314,646.699036 553.531311,644.090881 
	C541.237000,644.090881 528.873108,644.090881 516.257568,644.090881 
	C516.257568,640.985901 516.257568,638.249390 516.257568,635.104126 
	C521.004822,635.104126 525.758362,635.104126 530.998779,635.104126 
	C530.998779,633.101257 530.998779,631.492737 530.998779,629.884155 
	C530.998779,602.224182 530.996643,574.564209 531.000305,546.904236 
	C531.001282,539.979797 531.984497,539.004150 538.938904,539.001404 
	C550.423279,538.996948 561.907654,539.000244 573.838989,539.000244 
	C574.906616,532.733582 575.912720,526.564148 577.023926,520.413696 
	C577.600891,517.220032 579.751404,515.440857 582.859375,516.118958 
	C586.492004,516.911560 586.385132,520.173767 585.915344,522.973694 
	C585.040588,528.186035 583.843994,533.344421 582.724365,538.802979 
	C595.012146,538.802979 606.791443,538.802979 619.183594,538.802979 
	C618.188232,533.623718 617.189758,528.636047 616.282471,523.631897 
	C615.709412,520.471619 615.180786,516.801819 619.419861,516.149719 
	C623.431030,515.532654 624.675720,518.345886 625.115173,522.176025 
	C625.753784,527.742249 627.177185,533.218445 628.318604,539.000244 
	C640.221680,539.000244 652.030823,538.987061 663.840027,539.005676 
	C669.717834,539.014954 670.993958,540.290283 670.996277,546.171082 
	C671.007263,574.330933 670.981995,602.490845 671.046814,630.650513 
	C671.050903,632.429138 669.706238,635.435486 674.152710,635.000122 
M576.500000,548.000000 
	C564.404175,548.000000 552.308289,548.000000 540.290710,548.000000 
	C540.290710,577.314819 540.290710,606.048950 540.290710,634.710449 
	C580.981628,634.710449 621.380798,634.710449 661.709351,634.710449 
	C661.709351,605.685608 661.709351,576.951477 661.709351,548.000000 
	C633.445862,548.000000 605.472900,548.000000 576.500000,548.000000 
z"/>
<path fill="#FFFFFF" opacity="1.000000" stroke="none" 
	d="
M286.831665,634.327515 
	C272.631470,622.997864 273.616119,596.676453 285.014465,586.431213 
	C295.027618,577.431091 309.320923,574.958740 321.978271,582.740295 
	C321.978271,574.153809 321.978271,565.789062 321.978271,557.217529 
	C329.428101,557.217529 336.499146,557.217529 343.785675,557.217529 
	C343.785675,584.766418 343.785675,612.168335 343.785675,639.785278 
	C337.031525,639.785278 330.419891,639.785278 323.353638,639.785278 
	C323.153870,638.692505 322.916962,637.396484 322.625641,635.802734 
	C310.252716,643.852112 298.543182,642.014221 286.831665,634.327515 
M322.040375,611.667480 
	C323.805328,606.243713 320.316833,599.074280 315.389191,596.939514 
	C307.539001,593.538513 298.173523,599.245972 298.802002,610.086365 
	C299.282043,618.366211 303.958862,622.379944 308.856384,622.894348 
	C316.639069,623.711853 320.380768,620.140930 322.040375,611.667480 
z"/>
<path fill="#FFFFFF" opacity="1.000000" stroke="none" 
	d="
M117.702332,585.742432 
	C121.371025,577.665588 124.782036,569.887451 128.197769,562.098511 
	C135.705597,562.098511 143.017975,562.098511 150.809204,562.098511 
	C162.186020,587.798706 173.630432,613.651611 185.216995,639.825684 
	C176.970520,639.825684 169.195023,639.825684 161.337494,639.825684 
	C159.973999,636.760498 157.920792,633.801392 157.396072,630.592468 
	C156.521545,625.244263 153.414978,624.775818 149.008820,624.928650 
	C141.526886,625.188110 134.026260,624.887512 126.541351,625.099609 
	C125.124741,625.139771 123.019684,626.125305 122.478607,627.265930 
	C120.571976,631.285278 119.207718,635.561829 117.592743,639.860535 
	C109.852165,639.860535 102.065697,639.860535 93.864449,639.860535 
	C98.226707,629.966003 102.487389,620.344971 106.711380,610.707886 
	C110.311043,602.495239 113.868507,594.264099 117.702332,585.742432 
M147.628448,606.108032 
	C144.972031,599.485352 142.315613,592.862671 139.276596,585.286072 
	C136.016907,593.486938 133.175232,600.636047 130.248199,608.000000 
	C132.863693,608.000000 135.031372,608.127014 137.178604,607.971497 
	C140.778076,607.710876 144.364548,607.270264 147.628448,606.108032 
z"/>
<path fill="#FFFFFF" opacity="1.000000" stroke="none" 
	d="
M713.000000,615.000000 
	C713.000000,601.857910 713.000000,589.215820 713.000000,576.287354 
	C719.627380,576.287354 726.044434,576.287354 732.823120,576.287354 
	C732.938232,577.379456 733.066467,578.596252 733.153687,579.424011 
	C753.917664,570.773926 770.298401,573.966797 777.707581,596.978149 
	C781.528076,608.843689 779.081116,621.147461 768.809753,629.376099 
	C758.252808,637.833557 746.182251,638.824829 733.950317,631.259338 
	C733.950317,639.503357 733.950317,647.463745 733.950317,655.711121 
	C727.054321,655.711121 720.314697,655.711121 713.000000,655.711121 
	C713.000000,642.357727 713.000000,628.928894 713.000000,615.000000 
M754.068359,596.603455 
	C751.095703,593.297058 747.780945,590.966309 742.990601,592.473572 
	C735.313171,594.889221 731.349365,604.098999 734.855286,611.456055 
	C737.690857,617.406677 742.862549,620.005798 748.307312,618.216736 
	C756.837830,615.413696 759.670349,606.013489 754.068359,596.603455 
z"/>
<path fill="#FFFFFF" opacity="1.000000" stroke="none" 
	d="
M259.997925,637.802856 
	C258.899445,638.857544 257.815491,639.892334 256.704132,639.922668 
	C250.714890,640.085999 244.718842,639.999939 238.000000,639.999939 
	C238.000000,633.713928 238.000000,627.468872 238.000000,621.223816 
	C238.000000,616.893982 238.001038,612.564209 237.999741,608.234375 
	C237.997696,601.370056 234.660309,597.066406 229.210114,597.010376 
	C223.270767,596.949341 218.001709,601.121521 218.000473,608.404114 
	C217.998718,618.717957 218.000031,629.031860 218.000031,639.672607 
	C210.804993,639.672607 203.733170,639.672607 196.329132,639.672607 
	C196.329132,619.808960 196.329132,599.747070 196.329132,579.342102 
	C202.829437,579.342102 209.567200,579.342102 216.776184,579.342102 
	C216.890503,580.584656 217.028091,582.079956 217.101364,582.876282 
	C221.519547,581.563538 225.852676,580.012512 230.308090,578.999268 
	C246.943893,575.215942 259.879242,585.967896 259.985352,602.347961 
	C260.060883,614.004700 259.999847,625.662231 259.997925,637.802856 
z"/>
<path fill="#FFFFFF" opacity="1.000000" stroke="none" 
	d="
M460.838776,582.979248 
	C469.459900,588.665344 471.732025,597.166260 471.941406,606.394653 
	C472.190399,617.368896 472.000000,628.353088 472.000000,639.666321 
	C465.151978,639.666321 458.413513,639.666321 451.191467,639.666321 
	C451.094025,638.412170 450.978363,636.923706 450.845764,635.216980 
	C441.091125,642.261169 430.996277,642.742859 420.558197,637.831604 
	C414.908936,635.173462 410.520111,627.436768 411.005127,621.515991 
	C411.645508,613.698853 415.709534,607.632690 423.147949,606.144470 
	C431.754303,604.422485 440.629120,604.042419 449.286011,603.090881 
	C447.094849,593.506836 438.490417,592.277954 421.222046,600.198914 
	C418.769714,595.408813 416.303009,590.590698 413.864502,585.827637 
	C422.292267,577.942932 449.083221,574.604675 460.838776,582.979248 
M449.149780,621.289429 
	C449.510284,619.667480 449.870789,618.045471 450.324677,616.003418 
	C445.707458,616.003418 441.693146,615.561035 437.858215,616.198242 
	C436.060669,616.497009 433.822327,618.596863 433.185211,620.380859 
	C432.230896,623.053284 433.525299,625.189697 436.815369,626.098206 
	C441.555115,627.407166 445.275726,626.342651 449.149780,621.289429 
z"/>
<path fill="#FFFFFF" opacity="1.000000" stroke="none" 
	d="
M934.466919,594.192383 
	C929.719238,596.553528 927.772705,599.919739 927.918152,604.999390 
	C928.198730,614.801331 928.000000,624.616943 928.000000,634.712646 
	C920.717468,634.712646 913.644348,634.712646 906.284180,634.712646 
	C906.284180,615.374756 906.284180,595.971191 906.284180,576.283203 
	C912.971558,576.283203 919.722168,576.283203 926.867249,576.283203 
	C926.933289,577.604736 927.004456,579.027771 927.093628,580.812256 
	C927.731506,580.404907 928.225220,580.115601 928.691711,579.787781 
	C937.105103,573.875000 946.276245,573.481140 955.436218,577.120605 
	C962.620789,579.975159 967.651123,585.562073 967.895142,593.619385 
	C968.305359,607.168091 968.007324,620.738220 968.007324,634.652588 
	C962.177673,634.652588 955.434448,634.652588 948.000000,634.652588 
	C948.000000,625.661499 948.149475,616.407410 947.917114,607.162964 
	C947.838013,604.015869 947.524292,600.478882 946.028748,597.854553 
	C943.690552,593.751282 939.644043,592.134888 934.466919,594.192383 
z"/>
<path fill="#FFFFFF" opacity="1.000000" stroke="none" 
	d="
M848.000000,630.862793 
	C848.392578,633.955750 847.715271,635.229553 844.638367,635.074219 
	C839.327881,634.806213 833.994202,634.999939 828.211487,634.999939 
	C828.091553,633.412842 827.979065,631.924011 827.846802,630.174011 
	C819.382629,637.011780 810.192139,637.700867 800.704590,634.100952 
	C792.389221,630.945862 787.944641,624.039429 789.080322,616.126831 
	C790.342834,607.330627 793.549500,603.210083 803.589966,601.190430 
	C810.779175,599.744202 818.312195,600.007080 825.721863,599.505371 
	C825.964844,595.432007 824.244934,592.831360 817.331848,592.004761 
	C810.425964,591.179077 804.216614,593.183228 798.460022,596.923218 
	C796.450623,592.881531 794.334412,589.075989 792.711060,585.070618 
	C792.254761,583.944763 792.793030,581.360168 793.641541,580.919067 
	C806.780518,574.089600 820.441406,572.687866 834.394043,578.160095 
	C844.638489,582.178040 847.492126,591.076904 847.908508,600.890686 
	C848.324890,610.703186 848.000000,620.547119 848.000000,630.862793 
M811.659485,613.033264 
	C808.947815,615.421753 809.380310,617.751526 811.658752,620.196716 
	C814.941101,623.719055 818.760132,622.088806 822.061279,620.843872 
	C826.294556,619.247314 826.597900,615.379333 825.510925,610.249695 
	C821.149902,611.154175 816.819702,612.052307 811.659485,613.033264 
z"/>
<path fill="#FFFFFF" opacity="1.000000" stroke="none" 
	d="
M1060.143188,636.000000 
	C1051.792847,635.274658 1043.993042,634.281555 1036.765747,629.622192 
	C1038.973389,624.687439 1041.104858,619.922546 1042.899902,615.909912 
	C1049.745605,617.418823 1056.235474,618.843384 1062.720703,620.288574 
	C1063.308838,620.419739 1064.011963,621.010376 1064.416626,620.831970 
	C1066.981567,619.700989 1071.596558,618.420837 1071.600708,617.176575 
	C1071.613403,613.387451 1067.619263,614.544067 1065.021362,613.926086 
	C1058.657471,612.412231 1052.150269,611.182434 1046.074585,608.860596 
	C1039.552490,606.368164 1036.789185,597.885193 1038.487305,590.873779 
	C1040.628662,582.032227 1047.236084,578.026245 1054.840698,576.274353 
	C1065.907471,573.724854 1077.174805,574.048340 1087.776489,579.052979 
	C1088.774292,579.523987 1090.071899,581.477844 1089.796387,582.181885 
	C1088.114136,586.479858 1086.017456,590.615601 1084.051514,594.821350 
	C1075.297241,591.102539 1066.817017,588.880188 1058.089600,592.891724 
	C1057.920410,593.574158 1057.751343,594.256592 1057.582153,594.939026 
	C1060.720825,595.959351 1063.823975,597.110718 1067.005859,597.971741 
	C1073.017456,599.598572 1079.375488,600.350281 1085.039917,602.758484 
	C1092.975098,606.131958 1094.788696,619.921326 1089.130981,626.437317 
	C1083.222778,633.241638 1075.458496,635.180847 1067.105347,635.969604 
	C1064.960938,636.172119 1062.781250,636.000000 1060.143188,636.000000 
z"/>
<path fill="#FFFFFF" opacity="1.000000" stroke="none" 
	d="
M1004.915039,563.000000 
	C1007.053833,563.000000 1008.704651,563.000000 1010.748291,563.000000 
	C1010.748291,567.206665 1010.748291,571.280884 1010.748291,575.742676 
	C1015.197815,575.742676 1019.272888,575.742676 1023.673340,575.742676 
	C1023.673340,581.189087 1023.673340,586.259949 1023.673340,591.726746 
	C1019.814636,591.726746 1015.741150,591.726746 1011.005981,591.726746 
	C1011.005981,599.511536 1010.702332,606.940186 1011.111938,614.329346 
	C1011.388489,619.316833 1016.263672,620.392212 1022.848877,616.931030 
	C1024.570923,621.383118 1026.438599,625.743225 1027.855347,630.245300 
	C1028.161255,631.217285 1027.100098,633.556396 1026.233643,633.816528 
	C1016.904114,636.617432 1007.657837,637.658142 998.658813,632.271790 
	C992.553894,628.617676 990.194702,623.130737 990.042908,616.479492 
	C989.861145,608.516663 990.000000,600.546509 990.000000,592.197205 
	C987.057861,592.197205 984.318298,592.197205 981.289551,592.197205 
	C981.289551,586.748779 981.289551,581.677246 981.289551,576.214294 
	C983.924500,576.214294 986.663818,576.214294 989.789185,576.214294 
	C989.789185,571.767883 989.789185,567.688354 989.789185,563.000000 
	C994.917358,563.000000 999.672241,563.000000 1004.915039,563.000000 
z"/>
<path fill="#FFFFFF" opacity="1.000000" stroke="none" 
	d="
M404.000000,590.939209 
	C404.000000,593.411133 404.000000,595.393188 404.000000,598.000244 
	C401.424622,598.000244 398.997131,597.896362 396.581360,598.020264 
	C390.143616,598.350342 385.095886,604.089844 385.022949,611.317078 
	C384.928864,620.638245 385.000031,629.961182 385.000031,639.641602 
	C377.869965,639.641602 370.797028,639.641602 363.360931,639.641602 
	C363.360931,619.755310 363.360931,599.578308 363.360931,579.199585 
	C370.151062,579.199585 376.909424,579.199585 383.961273,579.199585 
	C383.961273,581.045410 383.961273,582.779663 383.961273,583.581543 
	C390.329590,581.393188 396.724274,579.195801 404.000000,576.695618 
	C404.000000,582.206055 404.000000,586.327698 404.000000,590.939209 
z"/>
<path fill="#FFFFFF" opacity="1.000000" stroke="none" 
	d="
M866.000000,610.000000 
	C866.000000,598.525085 866.000000,587.550110 866.000000,576.288208 
	C873.279846,576.288208 880.352295,576.288208 887.713806,576.288208 
	C887.713806,595.619080 887.713806,615.020630 887.713806,634.711731 
	C880.720276,634.711731 873.647827,634.711731 866.000000,634.711731 
	C866.000000,626.694824 866.000000,618.597412 866.000000,610.000000 
z"/>
<path fill="#FFFFFF" opacity="1.000000" stroke="none" 
	d="
M887.787415,552.424927 
	C891.192688,559.364746 889.513123,566.033020 883.878296,569.043274 
	C878.090271,572.135437 868.249695,569.646301 865.088135,564.290527 
	C861.341125,557.942993 865.870544,549.032715 873.562378,548.063538 
	C878.701111,547.416077 883.739380,547.885559 887.787415,552.424927 
z"/>
<path fill="#000000" opacity="1.000000" stroke="none" 
	d="
M577.000000,548.000000 
	C605.472900,548.000000 633.445862,548.000000 661.709351,548.000000 
	C661.709351,576.951477 661.709351,605.685608 661.709351,634.710449 
	C621.380798,634.710449 580.981628,634.710449 540.290710,634.710449 
	C540.290710,606.048950 540.290710,577.314819 540.290710,548.000000 
	C552.308289,548.000000 564.404175,548.000000 577.000000,548.000000 
M598.440674,587.862610 
	C595.764221,584.215637 593.276367,580.409302 590.363892,576.961670 
	C586.634399,572.546875 584.273621,572.665039 580.376343,577.172302 
	C577.403198,580.610718 574.635986,584.226562 571.750000,587.741272 
	C564.010254,597.167053 556.182922,606.522217 548.541992,616.027344 
	C545.295532,620.065796 546.743774,623.770996 551.771667,624.856445 
	C553.046509,625.131653 554.417053,624.995056 555.743591,624.995361 
	C585.858704,625.001282 615.973755,625.002930 646.088867,624.990967 
	C647.576294,624.990417 649.120911,625.093872 650.540771,624.747009 
	C655.615234,623.507507 656.574097,620.058777 653.372925,615.835632 
	C642.534119,601.536804 631.743408,587.200989 621.021362,572.814514 
	C617.976990,568.729736 615.068665,568.141174 611.649170,571.966919 
	C607.216980,576.925781 603.212158,582.266602 598.440674,587.862610 
M555.995667,568.487610 
	C558.934387,571.472534 562.293579,572.129700 565.303467,569.053650 
	C567.831543,566.470032 567.775024,562.980225 565.529663,560.201294 
	C563.534363,557.731934 560.639404,557.112854 557.779785,559.052612 
	C554.479187,561.291443 552.799988,564.081116 555.995667,568.487610 
z"/>
<path fill="#000000" opacity="1.000000" stroke="none" 
	d="
M322.021667,612.077637 
	C320.380768,620.140930 316.639069,623.711853 308.856384,622.894348 
	C303.958862,622.379944 299.282043,618.366211 298.802002,610.086365 
	C298.173523,599.245972 307.539001,593.538513 315.389191,596.939514 
	C320.316833,599.074280 323.805328,606.243713 322.021667,612.077637 
z"/>
<path fill="#000000" opacity="1.000000" stroke="none" 
	d="
M147.792465,606.506714 
	C144.364548,607.270264 140.778076,607.710876 137.178604,607.971497 
	C135.031372,608.127014 132.863693,608.000000 130.248199,608.000000 
	C133.175232,600.636047 136.016907,593.486938 139.276596,585.286072 
	C142.315613,592.862671 144.972031,599.485352 147.792465,606.506714 
z"/>
<path fill="#000000" opacity="1.000000" stroke="none" 
	d="
M754.366943,596.859619 
	C759.670349,606.013489 756.837830,615.413696 748.307312,618.216736 
	C742.862549,620.005798 737.690857,617.406677 734.855286,611.456055 
	C731.349365,604.098999 735.313171,594.889221 742.990601,592.473572 
	C747.780945,590.966309 751.095703,593.297058 754.366943,596.859619 
z"/>
<path fill="#000000" opacity="1.000000" stroke="none" 
	d="
M448.883698,621.606934 
	C445.275726,626.342651 441.555115,627.407166 436.815369,626.098206 
	C433.525299,625.189697 432.230896,623.053284 433.185211,620.380859 
	C433.822327,618.596863 436.060669,616.497009 437.858215,616.198242 
	C441.693146,615.561035 445.707458,616.003418 450.324677,616.003418 
	C449.870789,618.045471 449.510284,619.667480 448.883698,621.606934 
z"/>
<path fill="#000000" opacity="1.000000" stroke="none" 
	d="
M812.074463,612.991821 
	C816.819702,612.052307 821.149902,611.154175 825.510925,610.249695 
	C826.597900,615.379333 826.294556,619.247314 822.061279,620.843872 
	C818.760132,622.088806 814.941101,623.719055 811.658752,620.196716 
	C809.380310,617.751526 808.947815,615.421753 812.074463,612.991821 
z"/>
<path fill="#FFECF3" opacity="1.000000" stroke="none" 
	d="
M598.732056,587.652832 
	C603.212158,582.266602 607.216980,576.925781 611.649170,571.966919 
	C615.068665,568.141174 617.976990,568.729736 621.021362,572.814514 
	C631.743408,587.200989 642.534119,601.536804 653.372925,615.835632 
	C656.574097,620.058777 655.615234,623.507507 650.540771,624.747009 
	C649.120911,625.093872 647.576294,624.990417 646.088867,624.990967 
	C615.973755,625.002930 585.858704,625.001282 555.743591,624.995361 
	C554.417053,624.995056 553.046509,625.131653 551.771667,624.856445 
	C546.743774,623.770996 545.295532,620.065796 548.541992,616.027344 
	C556.182922,606.522217 564.010254,597.167053 571.750000,587.741272 
	C574.635986,584.226562 577.403198,580.610718 580.376343,577.172302 
	C584.273621,572.665039 586.634399,572.546875 590.363892,576.961670 
	C593.276367,580.409302 595.764221,584.215637 598.732056,587.652832 
M600.538025,599.980530 
	C596.298340,605.034546 592.058655,610.088501 587.325256,615.731018 
	C605.999207,615.731018 623.773682,615.731018 641.800293,615.731018 
	C632.961243,603.956421 624.342224,592.474976 615.688599,580.947449 
	C610.682922,587.268555 605.860168,593.358704 600.538025,599.980530 
M591.977356,596.119019 
	C589.930786,592.423767 587.884216,588.728455 585.737427,584.852234 
	C577.117859,595.471497 569.040100,605.423157 560.454651,616.000244 
	C565.030945,616.000244 568.360413,615.882690 571.677551,616.034729 
	C574.711609,616.173767 576.462341,615.213562 578.390747,612.473083 
	C582.314514,606.896790 587.209045,602.003601 591.977356,596.119019 
z"/>
<path fill="#FFEDF4" opacity="1.000000" stroke="none" 
	d="
M555.714600,568.216125 
	C552.799988,564.081116 554.479187,561.291443 557.779785,559.052612 
	C560.639404,557.112854 563.534363,557.731934 565.529663,560.201294 
	C567.775024,562.980225 567.831543,566.470032 565.303467,569.053650 
	C562.293579,572.129700 558.934387,571.472534 555.714600,568.216125 
z"/>
<path fill="#000000" opacity="1.000000" stroke="none" 
	d="
M600.787720,599.714722 
	C605.860168,593.358704 610.682922,587.268555 615.688599,580.947449 
	C624.342224,592.474976 632.961243,603.956421 641.800293,615.731018 
	C623.773682,615.731018 605.999207,615.731018 587.325256,615.731018 
	C592.058655,610.088501 596.298340,605.034546 600.787720,599.714722 
z"/>
<path fill="#000000" opacity="1.000000" stroke="none" 
	d="
M591.840454,596.473999 
	C587.209045,602.003601 582.314514,606.896790 578.390747,612.473083 
	C576.462341,615.213562 574.711609,616.173767 571.677551,616.034729 
	C568.360413,615.882690 565.030945,616.000244 560.454651,616.000244 
	C569.040100,605.423157 577.117859,595.471497 585.737427,584.852234 
	C587.884216,588.728455 589.930786,592.423767 591.840454,596.473999 
z"/>
</svg>